<?xml version="1.0" encoding="UTF-8"?>
<svg width="146px" height="146px" viewBox="0 0 146 146" version="1.1" xmlns="http://www.w3.org/2000/svg" xmlns:xlink="http://www.w3.org/1999/xlink">
    <title>Logos/Coloured/access</title>
    <g id="Mood" stroke="none" stroke-width="1" fill="none" fill-rule="evenodd">
        <g id="Artboard" transform="translate(-538.000000, -440.000000)">
            <g id="Access" transform="translate(538.000000, 440.000000)">
                <path d="M145.961802,70.612178 C147.30888,112.817584 112.817521,147.307803 70.6121144,145.963006 C32.3909112,144.743678 1.25983311,113.61374 0.0382237364,75.3913967 C-1.30999501,33.1837092 33.1847862,-1.311072 75.3913331,0.0382873717 C113.613677,1.25989675 144.742474,32.3909749 145.961802,70.612178" id="Fill-447" fill="#2D2D2D"></path>
                <polygon id="Fill-450" fill="#5F1E69" points="63.4348456 91.431778 107.075158 91.431778 107.075158 53.709028 63.4348456 53.709028"></polygon>
                <path d="M102.201496,93.3701561 C100.163199,93.866328 98.3724175,92.0732655 98.8651675,90.0554999 C99.0967144,89.1087811 99.87348,88.3320155 100.819058,88.0970467 C102.836824,87.5951717 104.634449,89.3517342 104.161089,91.3888905 C103.938667,92.3481561 103.157339,93.1386092 102.201496,93.3701561 M58.4779175,85.9024842 L58.4779175,95.5624374 C58.4779175,96.2604999 59.0436675,96.8273905 59.7428706,96.8273905 L110.920433,96.8273905 C111.619636,96.8273905 112.186527,96.2604999 112.186527,95.5612967 L112.186527,85.9024842 C112.186527,85.2032811 111.619636,84.6363905 110.920433,84.6363905 L59.7428706,84.6363905 C59.0436675,84.6363905 58.4779175,85.2032811 58.4779175,85.9024842" id="Fill-452" fill="#92519C"></path>
                <line x1="94.2126722" y1="89.1507561" x2="84.8652503" y2="89.1507561" id="Stroke-453" stroke="#AD7CB5" stroke-linecap="round"></line>
                <line x1="94.2126722" y1="92.5726311" x2="89.3912503" y2="92.5726311" id="Stroke-454" stroke="#AD7CB5" stroke-linecap="round"></line>
                <line x1="94.2126722" y1="50.5310186" x2="89.3912503" y2="50.5310186" id="Stroke-455" stroke="#AD7CB5" stroke-linecap="round"></line>
                <path d="M104.237625,90.7324608 C104.237625,89.2256952 103.017157,88.0040858 101.50925,88.0040858 C100.003625,88.0040858 98.7831565,89.2256952 98.7831565,90.7324608 C98.7831565,92.2380858 100.003625,93.4596952 101.50925,93.4596952 C103.017157,93.4596952 104.237625,92.2380858 104.237625,90.7324608" id="Fill-456" fill="#EAECEC"></path>
                <path d="M102.201496,72.3499202 C100.163199,72.8460921 98.3724175,71.0530296 98.8651675,69.0352639 C99.0967144,68.0874046 99.87348,67.3117796 100.819058,67.0756702 C102.836824,66.5749358 104.634449,68.3314983 104.161089,70.3686546 C103.938667,71.3279202 103.157339,72.1172327 102.201496,72.3499202 M58.4779175,64.8811077 L58.4779175,74.5410608 C58.4779175,75.2402639 59.0436675,75.8071546 59.7428706,75.8071546 L110.920433,75.8071546 C111.619636,75.8071546 112.186527,75.2402639 112.186527,74.5399202 L112.186527,64.8822483 C112.186527,64.1830452 111.619636,63.6161546 110.920433,63.6161546 L59.7428706,63.6161546 C59.0436675,63.6161546 58.4779175,64.1819046 58.4779175,64.8811077" id="Fill-457" fill="#92519C"></path>
                <line x1="94.2126722" y1="68.1305202" x2="84.8652503" y2="68.1305202" id="Stroke-458" stroke="#AD7CB5" stroke-linecap="round"></line>
                <line x1="94.2126722" y1="71.5523952" x2="89.3912503" y2="71.5523952" id="Stroke-459" stroke="#AD7CB5" stroke-linecap="round"></line>
                <path d="M104.237625,69.7110842 C104.237625,68.2054592 103.017157,66.9838499 101.50925,66.9838499 C100.003625,66.9838499 98.7831565,68.2054592 98.7831565,69.7110842 C98.7831565,71.2178499 100.003625,72.4394592 101.50925,72.4394592 C103.017157,72.4394592 104.237625,71.2178499 104.237625,69.7110842" id="Fill-460" fill="#EAECEC"></path>
                <path d="M102.201496,51.3352733 C100.163199,51.8314452 98.3724175,50.0383827 98.8651675,48.0194764 C99.0967144,47.0727577 99.87348,46.2971327 100.819058,46.0610233 C102.836824,45.5602889 104.634449,47.3168514 104.161089,49.3540077 C103.938667,50.3132733 103.157339,51.1025858 102.201496,51.3352733 M58.4779175,43.8664608 L58.4779175,53.5264139 C58.4779175,54.2256171 59.0436675,54.7925077 59.7428706,54.7925077 L110.920433,54.7925077 C111.619636,54.7925077 112.186527,54.2256171 112.186527,53.5252733 L112.186527,43.8676014 C112.186527,43.1683983 111.619636,42.6003671 110.920433,42.6003671 L59.7428706,42.6003671 C59.0436675,42.6003671 58.4779175,43.1672577 58.4779175,43.8664608" id="Fill-461" fill="#92519C"></path>
                <line x1="94.2126722" y1="47.1157592" x2="84.8652503" y2="47.1157592" id="Stroke-462" stroke="#AD7CB5" stroke-linecap="round"></line>
                <line x1="94.2126722" y1="50.5376342" x2="89.3912503" y2="50.5376342" id="Stroke-463" stroke="#AD7CB5" stroke-linecap="round"></line>
                <path d="M104.237625,48.6964374 C104.237625,47.1908124 103.017157,45.969203 101.50925,45.969203 C100.003625,45.969203 98.7831565,47.1908124 98.7831565,48.6964374 C98.7831565,50.2020624 100.003625,51.4248124 101.50925,51.4248124 C103.017157,51.4248124 104.237625,50.2020624 104.237625,48.6964374" id="Fill-464" fill="#EAECEC"></path>
                <path d="M48.4895784,52.5905311 C45.1840472,52.5905311 42.5081409,50.8077342 42.5081409,48.5994842 C42.5081409,46.3912342 45.1840472,44.6072967 48.4895784,44.6072967 C51.7951097,44.6072967 54.4824222,46.3912342 54.4824222,48.5994842 C54.4824222,50.8077342 51.7951097,52.5905311 48.4895784,52.5905311 M65.5419222,54.7873749 C64.9020315,49.6853592 62.0196722,45.2950936 57.9248284,42.5940936 C57.5712347,42.3545624 57.1936878,42.1378436 56.8161409,41.9199842 C54.3455472,40.5466717 51.5088128,39.7813124 48.4895784,39.7813124 C45.4817503,39.7813124 42.6450159,40.5466717 40.1744222,41.9199842 C39.922344,42.0579999 39.694219,42.1948749 39.466094,42.3431561 C39.3406253,42.4229999 39.2140159,42.5028436 39.0885472,42.5940936 C39.0429222,42.6180467 38.9961565,42.6397186 38.9505315,42.6853436 C34.3424065,45.7513436 31.3003597,51.0004999 31.3003597,56.9716717 C31.3003597,62.9291561 34.3424065,68.1566405 38.9505315,71.2340467 C39.1227659,71.3595155 39.2938597,71.4747186 39.466094,71.5773749 C40.2097815,72.030203 40.989969,72.4339842 41.8066565,72.7807342 C42.194469,72.9472655 42.4602347,73.3111249 42.4739222,73.7331561 L42.5423597,75.807953 C42.5537659,76.0828436 42.6678284,76.346328 42.8731409,76.528828 L43.891719,77.523453 L46.0988284,79.6746717 C46.4079378,79.9837811 46.4991878,80.4286249 46.3509065,80.8301249 L46.1798128,81.2749686 L43.6065628,87.9886874 L43.5826097,88.0582655 L43.125219,89.258203 C43.033969,89.4532499 43.0225628,89.6711092 43.079594,89.8752811 L44.8874847,97.5505467 C44.9445159,97.7569999 44.9331097,97.9623124 44.8635315,98.1562186 L44.1084378,100.249265 L42.7818909,103.966562 C42.7488128,104.081765 42.7248597,104.183281 42.7248597,104.30989 C42.7248597,104.596187 42.8400628,104.882484 43.0567815,105.087797 L48.089219,109.982219 C48.3070784,110.177265 48.5694222,110.279922 48.8329065,110.279922 C49.1990472,110.279922 49.5423753,110.108828 49.7362815,109.788312 L53.098844,104.459312 L53.1672815,104.30989 C53.235719,104.173015 53.2699378,104.03614 53.2699378,103.875312 L53.2699378,74.2498592 C53.2699378,73.7810624 53.5779065,73.380703 54.0227503,73.2312811 C58.0788128,71.8716561 61.448219,69.0178124 63.5070472,65.332453 C63.5754847,65.2069842 63.6439222,65.0803749 63.7135003,64.9549061 C64.7754222,62.9188905 65.4620784,60.6536092 65.6331722,58.2411874 C65.6571253,57.8294217 65.6787972,57.3948436 65.6787972,56.9716717 C65.6787972,56.2279842 65.6331722,55.5082499 65.5419222,54.7873749" id="Fill-465" fill="#FFB31C"></path>
                <line x1="50.145994" y1="75.0310733" x2="50.145994" y2="102.548651" id="Stroke-466" stroke="#F09A00" stroke-width="2" stroke-linecap="round"></line>
            </g>
        </g>
    </g>
</svg>